<svg xmlns="http://www.w3.org/2000/svg"><defs><style>.cls-1{fill:#000;fill-rule:evenodd;filter:url(#filter)}</style><filter id="filter" x="266" y="334" width="15" height="17" filterUnits="userSpaceOnUse"><feFlood result="flood"/><feComposite result="composite" operator="in" in2="SourceGraphic"/><feBlend result="blend" in2="SourceGraphic"/></filter><style>.cls-1{fill:#d1d1d1;fill-rule:evenodd;filter:url(#filter)}</style><filter id="filter" x="266.031" y="279" width="14.969" height="15" filterUnits="userSpaceOnUse"><feFlood result="flood"/><feComposite result="composite" operator="in" in2="SourceGraphic"/><feBlend result="blend" in2="SourceGraphic"/></filter></defs><symbol id="clock" viewBox="0 0 32 32"><title>chronometer</title><style>.color{fill:#fff}</style><path d="M28.054 18.571c0 6.933-5.62 12.554-12.554 12.554S2.946 25.504 2.946 18.571c0-6.722 5.286-12.192 11.927-12.521V3.884h-.941a1.005 1.005 0 0 1 0-2.009h3.012a1.004 1.004 0 1 1 0 2.009h-1.066v2.153c6.757.2 12.176 5.729 12.176 12.534zM14.873 9.909V7.618a11.032 11.032 0 0 0-7.766 3.858l1.653 1.653-.71.711-1.565-1.566a10.958 10.958 0 0 0-2.032 6.359c0 .106.015.251.015.251H6.9v1.005H4.54a11.178 11.178 0 0 0 2.268 5.534l1.243-1.243.71.71-1.296 1.297a11.007 11.007 0 0 0 7.408 3.462V26.92h1.004v2.742a11.008 11.008 0 0 0 7.599-3.41l-1.424-1.424.71-.71 1.377 1.376a11.192 11.192 0 0 0 2.322-5.604h-2.55v-1.005h2.621c.003-.104.016-.145.016-.251 0-2.438-.8-4.681-2.138-6.505l-1.648 1.648-.71-.71 1.726-1.725a11.018 11.018 0 0 0-7.9-3.737v2.304h-1.005zm1.066 8.976h3.516a.503.503 0 0 1 0 1.005h-4.018a.503.503 0 0 1-.502-.503V12.42a.502.502 0 0 1 1.004 0v6.465z" class="color"/></symbol><symbol id="locked-icon" viewBox="0 0 15 17"><path id="Locked_2" data-name="Locked 2" class="cls-1" d="M279 339.451a5.5 5.5 0 0 0-5.611-5.451 5.366 5.366 0 0 0-5.453 5.453h-.63a1 1 0 0 0-1.258 1.079v9.05a1.048 1.048 0 0 0 1.139 1.418h12.568a1.382 1.382 0 0 0 1.245-1.42v-8.61a1.343 1.343 0 0 0-1.247-1.532zm-1.187-.013a4.284 4.284 0 0 0-8.564 0h8.564zm-4.645 2.035a2.01 2.01 0 0 1 1.962 2.054 2.054 2.054 0 0 1-1.263 1.919c-.1.041.661 3.541.661 3.541l-2.64.019a20.682 20.682 0 0 0 .647-3.535 2.05 2.05 0 0 1-1.328-1.944 2.009 2.009 0 0 1 1.965-2.054z" transform="translate(-266 -334)"/></symbol><symbol id="user-icon" viewBox="0 0 15 15"><path id="User_copy_2" data-name="User copy 2" class="cls-1" d="M272.868 279.227a1.577 1.577 0 0 0-.721.269 1.75 1.75 0 0 0-.786.046 1.83 1.83 0 0 0-1.18 1.619c-.04.394-.05 1.5-.023 2.1.08.356-.2.356-.2.356-.5-.033-.278 1.516-.278 1.516a.814.814 0 0 0 .722.866 3.173 3.173 0 0 0 1.286 1.526s0 .616.018 1.072c-.076-.037.26 1.165-2.062 1.5s-2.766 1.077-3.2 1.489-.421 2.41-.421 2.41L281 294s-.112-2-.549-2.417-.915-1.152-3.236-1.489c-2.257-.321-1.886-1.507-1.9-1.578 0-.179.028-.941.028-.941a3.91 3.91 0 0 0 1.145-1.61 1.322 1.322 0 0 0 .866-.8s.165-1.564-.364-1.556c0 0-.251.08-.171-.275a9.608 9.608 0 0 0 .014-1.86c-.041-.395.02-1.523-.822-1.681a5.162 5.162 0 0 0-.931-.041c-.281-.039-.615-.755-1.137-.755z" transform="translate(-266.031 -279)"/></symbol></svg>